<svg width="332" height="332" viewBox="0 0 332 332" fill="none" xmlns="http://www.w3.org/2000/svg">
<path d="M112.857 101.489L177.349 166L112.863 230.511C111.717 230.029 110.738 229.219 110.051 228.182C109.363 227.145 108.998 225.929 109 224.685V107.315C109 106.073 109.366 104.858 110.052 103.822C110.738 102.786 111.713 101.974 112.857 101.489V101.489ZM181.827 170.478L196.406 185.057L127.139 225.166L181.827 170.478V170.478ZM202.087 150.224L219.865 160.522C220.825 161.078 221.621 161.877 222.175 162.839C222.729 163.8 223.02 164.89 223.02 166C223.02 167.11 222.729 168.2 222.175 169.161C221.621 170.122 220.825 170.922 219.865 171.478L202.081 181.776L186.305 166L202.087 150.224ZM127.139 106.834L196.413 146.937L181.827 161.522L127.139 106.834V106.834Z" fill="black"/>
</svg>
