<svg width="332" height="332" viewBox="0 0 332 332" fill="none" xmlns="http://www.w3.org/2000/svg">
<path d="M128.702 208.653C139.017 217.705 152.277 222.687 166 222.667C179.728 222.686 192.993 217.704 203.315 208.653C212.178 199.626 182.932 167.53 166 154.74C149.085 167.53 119.817 199.626 128.702 208.653ZM181.402 140.625C193.212 154.61 216.745 189.33 210.098 201.598C218.249 191.533 222.687 178.969 222.667 166.017C222.677 158.515 221.192 151.087 218.297 144.166C215.402 137.245 211.157 130.971 205.809 125.71C205.809 125.71 205.684 125.608 205.423 125.512C204.995 125.363 204.545 125.29 204.092 125.296C201.298 125.296 194.719 127.348 181.402 140.625V140.625ZM126.589 125.517C126.317 125.614 126.203 125.71 126.181 125.716C120.836 130.978 116.594 137.251 113.702 144.171C110.809 151.091 109.324 158.517 109.334 166.017C109.334 179.498 114.048 191.863 121.902 201.592C115.284 189.29 138.8 154.599 150.61 140.63C137.293 127.342 130.703 125.302 127.92 125.302C127.468 125.287 127.017 125.362 126.594 125.523V125.512L126.589 125.517ZM166 126.101C166 126.101 152.094 117.964 141.237 117.578C136.97 117.425 134.369 118.972 134.052 119.176C144.178 112.382 154.945 109.333 165.927 109.333H166C177.022 109.333 187.749 112.382 197.949 119.176C197.632 118.961 195.048 117.42 190.775 117.578C179.912 117.964 166 126.078 166 126.078V126.101Z" fill="black"/>
</svg>
