<svg width="332" height="332" viewBox="0 0 332 332" fill="none" xmlns="http://www.w3.org/2000/svg">
<path d="M163.619 135.739C158.071 135.739 149.483 129.431 140.439 129.659C128.507 129.811 117.563 136.575 111.407 147.291C99.0186 168.799 108.215 200.567 120.299 218.047C126.227 226.559 133.219 236.135 142.491 235.831C151.383 235.451 154.727 230.055 165.519 230.055C176.235 230.055 179.275 235.831 188.699 235.603C198.275 235.451 204.355 226.939 210.207 218.351C216.971 208.471 219.783 198.895 219.935 198.363C219.707 198.287 201.315 191.219 201.087 169.939C200.935 152.155 215.603 143.643 216.287 143.263C207.927 131.027 195.083 129.659 190.599 129.355C178.895 128.443 169.091 135.739 163.619 135.739V135.739ZM183.379 117.803C188.319 111.875 191.587 103.591 190.675 95.3833C183.607 95.6873 175.095 100.095 170.003 106.023C165.443 111.267 161.491 119.703 162.555 127.759C170.383 128.367 178.439 123.731 183.379 117.803V117.803Z" fill="black"/>
</svg>
