<svg width="332" height="332" viewBox="0 0 332 332" fill="none" xmlns="http://www.w3.org/2000/svg">
<path d="M221.566 192.308C219.308 195.158 213.785 197.19 213.785 197.19L172.662 211.979V201.07L202.923 190.271C206.362 189.042 206.887 187.299 204.094 186.386C201.311 185.467 196.266 185.73 192.827 186.969L172.667 194.077V182.763L173.822 182.37C173.822 182.37 179.65 180.301 187.845 179.393C196.035 178.49 206.073 179.519 213.948 182.506C222.821 185.315 223.818 189.452 221.566 192.303V192.308ZM176.573 173.738V145.85C176.573 142.574 175.975 139.561 172.904 138.711C170.557 137.955 169.097 140.139 169.097 143.409V213.25L150.281 207.27V124C158.282 125.486 169.937 129.003 176.201 131.114C192.134 136.59 197.537 143.409 197.537 158.765C197.537 173.733 188.307 179.409 176.579 173.738H176.573ZM115.763 199.936C106.654 197.364 105.137 192.009 109.289 188.927C113.127 186.081 119.653 183.939 119.653 183.939L146.627 174.332V185.283L127.218 192.239C123.79 193.468 123.26 195.211 126.047 196.125C128.835 197.043 133.886 196.781 137.319 195.547L146.627 192.166V201.957L144.774 202.272C135.461 203.795 125.538 203.16 115.763 199.936V199.936Z" fill="black"/>
</svg>
