<svg width="332" height="332" viewBox="0 0 332 332" fill="none" xmlns="http://www.w3.org/2000/svg">
<path d="M164.547 224.316C134.092 223.569 109.422 199.483 107.754 169.261L107.684 167.435L164.547 224.316V224.316ZM166 107.667C175.381 107.66 184.624 109.918 192.945 114.25C201.266 118.581 208.417 124.858 213.792 132.546L204.237 139.243C199.383 132.31 192.736 126.828 185.006 123.382C177.277 119.936 168.756 118.656 160.355 119.679C151.954 120.701 143.989 123.989 137.312 129.188C130.635 134.388 125.497 141.306 122.448 149.2L182.8 209.552C189.724 206.872 195.911 202.583 200.849 197.039C205.787 191.494 209.334 184.854 211.197 177.667H186.417V166H224.333C224.333 193.568 205.206 216.668 179.504 222.758L109.236 152.502C115.332 126.8 138.432 107.667 166 107.667Z" fill="black"/>
</svg>
