<svg width="244" height="36" viewBox="0 0 244 36" fill="none" xmlns="http://www.w3.org/2000/svg">
<path d="M11.7739 32.0756C10.4692 32.0756 9.37445 31.8207 8.48964 31.3108C7.61983 30.7859 6.92248 30.1036 6.39759 29.2637C5.85771 28.4389 5.46779 27.5091 5.22785 26.4744C5.00289 25.4246 4.89042 24.3673 4.89042 23.3025V22.3577C4.89042 21.308 5.00289 20.2657 5.22785 19.2309C5.46779 18.1961 5.85771 17.2589 6.39759 16.419C6.93747 15.5942 7.64232 14.9269 8.51213 14.417C9.39694 13.8921 10.4842 13.6296 11.7739 13.6296C12.6137 13.6296 13.3936 13.7721 14.1134 14.057C14.8483 14.342 15.4781 14.7319 16.003 15.2268C16.5279 15.7217 16.9403 16.2991 17.2402 16.9589C17.5552 17.6038 17.7201 18.2936 17.7351 19.0285H21.6718C21.6718 17.7987 21.4243 16.644 20.9294 15.5642C20.4345 14.4845 19.7522 13.5472 18.8824 12.7523C17.9976 11.9725 16.9478 11.3576 15.7331 10.9077C14.5333 10.4428 13.2136 10.2104 11.7739 10.2104C9.92932 10.2104 8.31717 10.5403 6.93747 11.2002C5.55777 11.86 4.41052 12.7448 3.49572 13.8546C2.56592 14.9793 1.86857 16.2766 1.40368 17.7462C0.938776 19.2159 0.706327 20.7531 0.706327 22.3577V23.3025C0.706327 24.9222 0.938776 26.4669 1.40368 27.9365C1.86857 29.3912 2.56592 30.6734 3.49572 31.7832C4.41052 32.908 5.55777 33.8003 6.93747 34.4601C8.31717 35.12 9.92932 35.4499 11.7739 35.4499C13.0636 35.4499 14.3009 35.2324 15.4856 34.7975C16.6704 34.3476 17.7201 33.7478 18.6349 32.9979C19.5497 32.2631 20.2771 31.4083 20.817 30.4335C21.3718 29.4437 21.6568 28.4089 21.6718 27.3292H17.7351C17.7201 28.004 17.5402 28.6339 17.1952 29.2188C16.8653 29.7886 16.4229 30.2835 15.868 30.7034C15.3132 31.1383 14.6758 31.4758 13.956 31.7157C13.2511 31.9557 12.5238 32.0756 11.7739 32.0756ZM33.2343 14.282V0.4475H29.0727V35H33.2343V17.3188C33.5342 16.8389 33.8716 16.404 34.2465 16.0141C34.6365 15.6092 35.0564 15.2568 35.5063 14.9569C36.0761 14.5669 36.6985 14.267 37.3734 14.057C38.0482 13.8471 38.7606 13.7421 39.5104 13.7421C40.4252 13.7271 41.235 13.8546 41.9399 14.1245C42.6447 14.3795 43.2296 14.7694 43.6945 15.2943C44.1294 15.7742 44.4593 16.3815 44.6843 17.1164C44.9092 17.8362 45.0217 18.676 45.0217 19.6358V35H49.1833V19.6808C49.1833 18.0462 48.9808 16.6365 48.5759 15.4517C48.186 14.252 47.6236 13.2622 46.8888 12.4824C46.154 11.7026 45.2617 11.1327 44.2119 10.7728C43.1771 10.3978 42.0224 10.2104 40.7476 10.2104C39.7728 10.2254 38.8505 10.3678 37.9807 10.6378C37.1259 10.9077 36.3386 11.3051 35.6187 11.83C35.1688 12.145 34.7414 12.5124 34.3365 12.9323C33.9316 13.3372 33.5642 13.7871 33.2343 14.282ZM72.7357 35H77.0773V34.6401C76.8073 33.9652 76.5974 33.1779 76.4474 32.2781C76.2974 31.3633 76.2224 30.501 76.2224 29.6912V18.3761C76.2224 17.0114 75.975 15.8192 75.4801 14.7994C74.9852 13.7796 74.3104 12.9248 73.4555 12.2349C72.5857 11.5601 71.5584 11.0577 70.3737 10.7278C69.189 10.3828 67.9067 10.2104 66.527 10.2104C65.0124 10.2104 63.6552 10.4203 62.4554 10.8402C61.2707 11.2602 60.2659 11.8075 59.4411 12.4824C58.6013 13.1722 57.9564 13.9446 57.5065 14.7994C57.0716 15.6542 56.8466 16.524 56.8316 17.4088H61.0157C61.0157 16.8989 61.1357 16.4115 61.3757 15.9466C61.6306 15.4667 61.983 15.0543 62.4329 14.7094C62.8828 14.3645 63.4302 14.087 64.0751 13.8771C64.7349 13.6671 65.4773 13.5622 66.3021 13.5622C67.1869 13.5622 67.9817 13.6746 68.6866 13.8996C69.4064 14.1245 70.0138 14.4395 70.5087 14.8444C71.0036 15.2643 71.386 15.7667 71.6559 16.3515C71.9259 16.9364 72.0608 17.5963 72.0608 18.3311V20.2432H67.5168C65.8222 20.2432 64.285 20.4082 62.9053 20.7381C61.5406 21.068 60.3709 21.5629 59.3961 22.2228C58.4213 22.8976 57.664 23.7374 57.1241 24.7422C56.5992 25.747 56.3368 26.9168 56.3368 28.2515C56.3368 29.2712 56.5317 30.2235 56.9216 31.1083C57.3265 31.9782 57.8964 32.728 58.6313 33.3579C59.3511 34.0027 60.2284 34.5126 61.2632 34.8875C62.313 35.2624 63.4827 35.4499 64.7724 35.4499C65.5672 35.4499 66.3171 35.3674 67.0219 35.2025C67.7268 35.0375 68.3941 34.8125 69.024 34.5276C69.6389 34.2427 70.2012 33.9127 70.7111 33.5378C71.236 33.1629 71.7084 32.7655 72.1283 32.3456C72.1733 32.8555 72.2408 33.3504 72.3308 33.8303C72.4358 34.2952 72.5707 34.6851 72.7357 35ZM65.3798 31.8282C64.57 31.8282 63.8576 31.7232 63.2428 31.5133C62.6279 31.3033 62.118 31.0109 61.7131 30.6359C61.3082 30.276 61.0007 29.8411 60.7908 29.3312C60.5958 28.8213 60.4983 28.2665 60.4983 27.6666C60.4983 27.0367 60.6108 26.4744 60.8358 25.9795C61.0757 25.4846 61.4206 25.0572 61.8706 24.6972C62.5004 24.1873 63.3477 23.8124 64.4125 23.5725C65.4923 23.3175 66.752 23.1901 68.1917 23.1901H72.0608V28.1165C71.8209 28.5964 71.491 29.0613 71.0711 29.5112C70.6511 29.9461 70.1563 30.336 69.5864 30.6809C69.0015 31.0259 68.3566 31.3033 67.6518 31.5133C66.9469 31.7232 66.1896 31.8282 65.3798 31.8282ZM94.2635 4.76656H90.0794V10.6603H83.6908V13.8771H90.0794V27.1042C90.0794 28.6039 90.2744 29.8861 90.6643 30.9509C91.0692 32.0007 91.6166 32.8555 92.3064 33.5153C92.9963 34.1902 93.8061 34.6851 94.7359 35C95.6807 35.2999 96.693 35.4499 97.7728 35.4499C98.4176 35.4499 99.0625 35.4199 99.7073 35.3599C100.367 35.2999 100.99 35.21 101.574 35.09C102.159 34.985 102.699 34.8575 103.194 34.7076C103.689 34.5426 104.109 34.3551 104.454 34.1452L103.869 31.1983C103.614 31.2583 103.284 31.3333 102.879 31.4233C102.489 31.4983 102.069 31.5732 101.619 31.6482C101.155 31.7232 100.682 31.7907 100.202 31.8507C99.7223 31.8957 99.2574 31.9182 98.8075 31.9182C98.1927 31.9182 97.6078 31.8432 97.0529 31.6932C96.513 31.5433 96.0331 31.2808 95.6132 30.9059C95.1933 30.546 94.8634 30.0586 94.6234 29.4437C94.3835 28.8288 94.2635 28.049 94.2635 27.1042V13.8771H103.532V10.6603H94.2635V4.76656ZM121.933 4.76656H117.748V10.6603H111.36V13.8771H117.748V27.1042C117.748 28.6039 117.943 29.8861 118.333 30.9509C118.738 32.0007 119.286 32.8555 119.975 33.5153C120.665 34.1902 121.475 34.6851 122.405 35C123.35 35.2999 124.362 35.4499 125.442 35.4499C126.087 35.4499 126.731 35.4199 127.376 35.3599C128.036 35.2999 128.659 35.21 129.243 35.09C129.828 34.985 130.368 34.8575 130.863 34.7076C131.358 34.5426 131.778 34.3551 132.123 34.1452L131.538 31.1983C131.283 31.2583 130.953 31.3333 130.548 31.4233C130.158 31.4983 129.738 31.5732 129.288 31.6482C128.824 31.7232 128.351 31.7907 127.871 31.8507C127.391 31.8957 126.926 31.9182 126.477 31.9182C125.862 31.9182 125.277 31.8432 124.722 31.6932C124.182 31.5433 123.702 31.2808 123.282 30.9059C122.862 30.546 122.532 30.0586 122.292 29.4437C122.052 28.8288 121.933 28.049 121.933 27.1042V13.8771H131.201V10.6603H121.933V4.76656ZM138.579 22.6052V23.1001C138.579 24.8547 138.834 26.4818 139.344 27.9815C139.854 29.4812 140.588 30.7859 141.548 31.8957C142.493 33.0054 143.648 33.8752 145.013 34.5051C146.392 35.135 147.944 35.4499 149.669 35.4499C151.379 35.4499 152.916 35.135 154.28 34.5051C155.645 33.8752 156.807 33.0054 157.767 31.8957C158.712 30.7859 159.439 29.4812 159.949 27.9815C160.459 26.4818 160.714 24.8547 160.714 23.1001V22.6052C160.714 20.8506 160.459 19.2234 159.949 17.7238C159.439 16.2091 158.712 14.8969 157.767 13.7871C156.807 12.6773 155.638 11.8075 154.258 11.1777C152.893 10.5328 151.349 10.2104 149.624 10.2104C147.914 10.2104 146.377 10.5328 145.013 11.1777C143.648 11.8075 142.493 12.6773 141.548 13.7871C140.588 14.8969 139.854 16.2091 139.344 17.7238C138.834 19.2234 138.579 20.8506 138.579 22.6052ZM142.741 23.1001V22.6052C142.741 21.4204 142.883 20.2882 143.168 19.2084C143.453 18.1137 143.888 17.1539 144.473 16.3291C145.043 15.5042 145.755 14.8519 146.61 14.372C147.464 13.8771 148.469 13.6296 149.624 13.6296C150.779 13.6296 151.784 13.8771 152.638 14.372C153.508 14.8519 154.236 15.5042 154.82 16.3291C155.39 17.1539 155.818 18.1137 156.103 19.2084C156.403 20.2882 156.553 21.4204 156.553 22.6052V23.1001C156.553 24.2998 156.41 25.4471 156.125 26.5418C155.84 27.6216 155.413 28.5739 154.843 29.3987C154.258 30.2235 153.531 30.8759 152.661 31.3558C151.806 31.8357 150.809 32.0756 149.669 32.0756C148.514 32.0756 147.502 31.8357 146.632 31.3558C145.762 30.8759 145.043 30.2235 144.473 29.3987C143.888 28.5739 143.453 27.6216 143.168 26.5418C142.883 25.4471 142.741 24.2998 142.741 23.1001ZM174.661 32.3006C174.661 33.1704 174.931 33.9127 175.471 34.5276C176.026 35.1275 176.843 35.4274 177.923 35.4274C178.988 35.4274 179.805 35.1275 180.375 34.5276C180.945 33.9277 181.23 33.1854 181.23 32.3006C181.23 31.4008 180.945 30.6434 180.375 30.0286C179.82 29.3987 179.003 29.0838 177.923 29.0838C176.828 29.0838 176.011 29.3987 175.471 30.0286C174.931 30.6584 174.661 31.4158 174.661 32.3006ZM195.739 10.6603V14.282H204.017V31.4008H195.739V35H216.12V31.4008H208.179V10.6603H195.739ZM203.477 4.27167C203.477 4.94652 203.68 5.5089 204.085 5.9588C204.505 6.40871 205.134 6.63366 205.974 6.63366C206.799 6.63366 207.421 6.40871 207.841 5.9588C208.261 5.5089 208.471 4.94652 208.471 4.27167C208.471 3.89675 208.411 3.55183 208.291 3.23689C208.171 2.92196 207.991 2.65952 207.751 2.44957C207.556 2.25461 207.309 2.10464 207.009 1.99966C206.709 1.87969 206.364 1.8197 205.974 1.8197C205.584 1.8197 205.232 1.87969 204.917 1.99966C204.617 2.10464 204.37 2.25461 204.175 2.44957C203.935 2.67452 203.755 2.94446 203.635 3.25939C203.53 3.57432 203.477 3.91175 203.477 4.27167ZM221.586 22.6052V23.1001C221.586 24.8547 221.841 26.4818 222.351 27.9815C222.861 29.4812 223.595 30.7859 224.555 31.8957C225.5 33.0054 226.655 33.8752 228.019 34.5051C229.399 35.135 230.951 35.4499 232.676 35.4499C234.386 35.4499 235.923 35.135 237.287 34.5051C238.652 33.8752 239.814 33.0054 240.774 31.8957C241.719 30.7859 242.446 29.4812 242.956 27.9815C243.466 26.4818 243.721 24.8547 243.721 23.1001V22.6052C243.721 20.8506 243.466 19.2234 242.956 17.7238C242.446 16.2091 241.719 14.8969 240.774 13.7871C239.814 12.6773 238.645 11.8075 237.265 11.1777C235.9 10.5328 234.356 10.2104 232.631 10.2104C230.921 10.2104 229.384 10.5328 228.019 11.1777C226.655 11.8075 225.5 12.6773 224.555 13.7871C223.595 14.8969 222.861 16.2091 222.351 17.7238C221.841 19.2234 221.586 20.8506 221.586 22.6052ZM225.747 23.1001V22.6052C225.747 21.4204 225.89 20.2882 226.175 19.2084C226.46 18.1137 226.895 17.1539 227.48 16.3291C228.049 15.5042 228.762 14.8519 229.617 14.372C230.471 13.8771 231.476 13.6296 232.631 13.6296C233.786 13.6296 234.791 13.8771 235.645 14.372C236.515 14.8519 237.242 15.5042 237.827 16.3291C238.397 17.1539 238.825 18.1137 239.11 19.2084C239.41 20.2882 239.559 21.4204 239.559 22.6052V23.1001C239.559 24.2998 239.417 25.4471 239.132 26.5418C238.847 27.6216 238.42 28.5739 237.85 29.3987C237.265 30.2235 236.538 30.8759 235.668 31.3558C234.813 31.8357 233.816 32.0756 232.676 32.0756C231.521 32.0756 230.509 31.8357 229.639 31.3558C228.769 30.8759 228.049 30.2235 227.48 29.3987C226.895 28.5739 226.46 27.6216 226.175 26.5418C225.89 25.4471 225.747 24.2998 225.747 23.1001Z" fill="black"/>
</svg>
